<svg width="97" height="105" viewBox="0 0 97 105" fill="none" xmlns="http://www.w3.org/2000/svg">
<path d="M44.1818 46.0796C43.4416 50.7114 43.8016 53.9534 43.9351 59L77 10L20 33.1592C24.3429 33.9393 33.8182 34.4594 38.013 34.6219C43.7377 34.4269 51.0909 29.99 54.0519 27.796H49.3636L62.6883 21.2139L55.039 32.6716L54.5455 29.7463L54.2987 31.4527L53.0649 31.9403C53.4597 31.7453 53.8874 29.4212 54.0519 28.2836C50.1039 30.6239 44.9221 41.4478 44.1818 46.0796Z" fill="#D2DE32"/>
<path d="M7.41 89.3C6.21 89.3 5.02 89.09 3.84 88.67C2.66 88.25 1.81 87.78 1.29 87.26L2.88 84.41C3.3 84.79 3.95 85.19 4.83 85.61C5.73 86.01 6.59 86.21 7.41 86.21C8.47 86.21 9.33 85.96 9.99 85.46C10.67 84.96 11.01 84.27 11.01 83.39C11.01 82.71 10.83 82.12 10.47 81.62C10.11 81.12 9.67 80.71 9.15 80.39C8.63 80.05 7.89 79.64 6.93 79.16C5.79 78.6 5.01 78.18 4.59 77.9C2.65 76.6 1.68 74.8 1.68 72.5C1.68 70.6 2.31 69.15 3.57 68.15C4.83 67.13 6.42 66.62 8.34 66.62C10.4 66.62 12.15 67.21 13.59 68.39L12 71.12C11.62 70.72 11.08 70.38 10.38 70.1C9.7 69.8 8.97 69.65 8.19 69.65C7.19 69.65 6.4 69.88 5.82 70.34C5.26 70.78 4.98 71.44 4.98 72.32C4.98 72.94 5.16 73.5 5.52 74C5.88 74.48 6.33 74.9 6.87 75.26C7.43 75.62 8.18 76.06 9.12 76.58C10.02 77.08 10.71 77.48 11.19 77.78C11.67 78.06 12.12 78.4 12.54 78.8C13.12 79.32 13.59 79.94 13.95 80.66C14.31 81.38 14.49 82.17 14.49 83.03C14.49 84.37 14.18 85.51 13.56 86.45C12.96 87.39 12.12 88.1 11.04 88.58C9.98 89.06 8.77 89.3 7.41 89.3ZM23.7717 78.71L22.3917 75.59L21.7617 78.71L19.7217 89H16.3917L20.9517 66.95H21.3117L27.3717 78.86L29.1717 82.85L30.9717 78.86L36.9117 66.95H37.2417L41.9817 89H38.6817L36.4617 78.71L35.8017 75.59L34.6017 78.71L29.2617 89H29.0817L23.7717 78.71ZM53.0077 66.92L63.6277 89H59.7577L57.8677 84.68H47.7577L45.8677 89H42.1177L52.6777 66.92H53.0077ZM51.5077 76.31L49.1077 81.65H56.5477L54.1777 76.34L52.8877 73.31H52.8277L51.5077 76.31ZM76.4848 89L72.0448 80.66C71.1248 80.7 70.3048 80.72 69.5848 80.72H68.7448V89H65.4748V66.95H70.4848C73.0248 66.95 75.1148 67.48 76.7548 68.54C78.3948 69.58 79.2148 71.28 79.2148 73.64C79.2148 75.12 78.8648 76.4 78.1648 77.48C77.4848 78.54 76.4648 79.36 75.1048 79.94L80.3548 89H76.4848ZM70.8748 77.99C72.8348 77.99 74.1748 77.57 74.8948 76.73C75.6348 75.87 76.0048 74.85 76.0048 73.67C76.0048 71.05 74.2548 69.74 70.7548 69.74H68.7448V77.99H70.8748ZM86.7841 69.89H81.1441V66.95H95.8141V69.89H90.1141V89H86.7841V69.89Z" fill="#D2DE32"/>
</svg>
