<svg width="97" height="85" viewBox="0 0 97 85" fill="none" xmlns="http://www.w3.org/2000/svg">
<path d="M44.1818 36.0796C43.4416 40.7114 43.8016 43.9534 43.9351 49L77 0L20 23.1592C24.3429 23.9393 33.8182 24.4594 38.013 24.6219C43.7377 24.4269 51.0909 19.99 54.0519 17.796H49.3636L62.6883 11.2139L55.039 22.6716L54.5455 19.7463L54.2987 21.4527L53.0649 21.9403C53.4597 21.7453 53.8874 19.4212 54.0519 18.2836C50.1039 20.6239 44.9221 31.4478 44.1818 36.0796Z" fill="#001213"/>
<path d="M7.41 79.3C6.21 79.3 5.02 79.09 3.84 78.67C2.66 78.25 1.81 77.78 1.29 77.26L2.88 74.41C3.3 74.79 3.95 75.19 4.83 75.61C5.73 76.01 6.59 76.21 7.41 76.21C8.47 76.21 9.33 75.96 9.99 75.46C10.67 74.96 11.01 74.27 11.01 73.39C11.01 72.71 10.83 72.12 10.47 71.62C10.11 71.12 9.67 70.71 9.15 70.39C8.63 70.05 7.89 69.64 6.93 69.16C5.79 68.6 5.01 68.18 4.59 67.9C2.65 66.6 1.68 64.8 1.68 62.5C1.68 60.6 2.31 59.15 3.57 58.15C4.83 57.13 6.42 56.62 8.34 56.62C10.4 56.62 12.15 57.21 13.59 58.39L12 61.12C11.62 60.72 11.08 60.38 10.38 60.1C9.7 59.8 8.97 59.65 8.19 59.65C7.19 59.65 6.4 59.88 5.82 60.34C5.26 60.78 4.98 61.44 4.98 62.32C4.98 62.94 5.16 63.5 5.52 64C5.88 64.48 6.33 64.9 6.87 65.26C7.43 65.62 8.18 66.06 9.12 66.58C10.02 67.08 10.71 67.48 11.19 67.78C11.67 68.06 12.12 68.4 12.54 68.8C13.12 69.32 13.59 69.94 13.95 70.66C14.31 71.38 14.49 72.17 14.49 73.03C14.49 74.37 14.18 75.51 13.56 76.45C12.96 77.39 12.12 78.1 11.04 78.58C9.98 79.06 8.77 79.3 7.41 79.3ZM23.7717 68.71L22.3917 65.59L21.7617 68.71L19.7217 79H16.3917L20.9517 56.95H21.3117L27.3717 68.86L29.1717 72.85L30.9717 68.86L36.9117 56.95H37.2417L41.9817 79H38.6817L36.4617 68.71L35.8017 65.59L34.6017 68.71L29.2617 79H29.0817L23.7717 68.71ZM53.0077 56.92L63.6277 79H59.7577L57.8677 74.68H47.7577L45.8677 79H42.1177L52.6777 56.92H53.0077ZM51.5077 66.31L49.1077 71.65H56.5477L54.1777 66.34L52.8877 63.31H52.8277L51.5077 66.31ZM76.4848 79L72.0448 70.66C71.1248 70.7 70.3048 70.72 69.5848 70.72H68.7448V79H65.4748V56.95H70.4848C73.0248 56.95 75.1148 57.48 76.7548 58.54C78.3948 59.58 79.2148 61.28 79.2148 63.64C79.2148 65.12 78.8648 66.4 78.1648 67.48C77.4848 68.54 76.4648 69.36 75.1048 69.94L80.3548 79H76.4848ZM70.8748 67.99C72.8348 67.99 74.1748 67.57 74.8948 66.73C75.6348 65.87 76.0048 64.85 76.0048 63.67C76.0048 61.05 74.2548 59.74 70.7548 59.74H68.7448V67.99H70.8748ZM86.7841 59.89H81.1441V56.95H95.8141V59.89H90.1141V79H86.7841V59.89Z" fill="#001213"/>
</svg>
