<svg width="34" height="34" viewBox="0 0 34 34" fill="none" xmlns="http://www.w3.org/2000/svg">
<path fill-rule="evenodd" clip-rule="evenodd" d="M17 34C26.3888 34 34 26.3888 34 17C34 7.61116 26.3888 0 17 0C7.61116 0 0 7.61116 0 17C0 26.3888 7.61116 34 17 34ZM17 31.96C25.2622 31.96 31.96 25.2622 31.96 17C31.96 8.73782 25.2622 2.04 17 2.04C8.73782 2.04 2.04 8.73782 2.04 17C2.04 25.2622 8.73782 31.96 17 31.96ZM18.2339 24.48V16.9991H20.4467L20.74 14.4212H18.2339L18.2376 13.1309C18.2376 12.4585 18.3061 12.0982 19.3409 12.0982H20.7243V9.52H18.5111C15.8528 9.52 14.9171 10.7706 14.9171 12.8737V14.4215H13.26V16.9994H14.9171V24.48H18.2339Z" fill="#001213"/>
</svg>
