<svg width="34" height="34" viewBox="0 0 34 34" fill="none" xmlns="http://www.w3.org/2000/svg">
<g clip-path="url(#clip0_55_39)">
<path fill-rule="evenodd" clip-rule="evenodd" d="M17 34C26.3888 34 34 26.3888 34 17C34 7.61116 26.3888 0 17 0C7.61116 0 0 7.61116 0 17C0 26.3888 7.61116 34 17 34ZM17 31.96C25.2622 31.96 31.96 25.2622 31.96 17C31.96 8.73782 25.2622 2.04 17 2.04C8.73782 2.04 2.04 8.73782 2.04 17C2.04 25.2622 8.73782 31.96 17 31.96ZM16.7839 13.9769L16.8164 14.5357L16.2759 14.4673C14.3086 14.205 12.5899 13.3155 11.1306 11.8214L10.4172 11.0801L10.2334 11.6276C9.84428 12.8479 10.0929 14.1366 10.9036 15.0033C11.336 15.4823 11.2387 15.5508 10.4928 15.2656C10.2334 15.1744 10.0064 15.106 9.98481 15.1402C9.90914 15.22 10.1686 16.2578 10.3739 16.6684C10.655 17.2386 11.2279 17.7975 11.8548 18.1282L12.3845 18.3905L11.7576 18.4019C11.1522 18.4019 11.1306 18.4133 11.1955 18.6528C11.4116 19.3941 12.2656 20.181 13.2168 20.5232L13.887 20.7627L13.3033 21.1276C12.4385 21.6522 11.4225 21.9488 10.4064 21.9716C9.91995 21.983 9.52 22.0286 9.52 22.0628C9.52 22.1768 10.8387 22.8155 11.6062 23.0664C13.9086 23.8077 16.6434 23.4884 18.6972 22.2225C20.1565 21.3215 21.6157 19.531 22.2967 17.7975C22.6643 16.8737 23.0318 15.1858 23.0318 14.3761C23.0318 13.8515 23.0642 13.783 23.6695 13.1558C24.0262 12.7908 24.3613 12.3917 24.4262 12.2776C24.5343 12.0609 24.5235 12.0609 23.9722 12.2548C23.0534 12.597 22.9237 12.5513 23.3777 12.0381C23.7128 11.6732 24.1127 11.0117 24.1127 10.8178C24.1127 10.7836 23.9506 10.8407 23.7668 10.9433C23.5723 11.0573 23.1399 11.2284 22.8156 11.331L22.2319 11.5249L21.7022 11.1486C21.4104 10.9433 20.9996 10.7152 20.7834 10.6468C20.2321 10.4871 19.389 10.5099 18.8918 10.6924C17.5406 11.2056 16.6866 12.5285 16.7839 13.9769Z" fill="#001213"/>
</g>
<defs>
<clipPath id="clip0_55_39">
<rect width="34" height="34" fill="white"/>
</clipPath>
</defs>
</svg>
