<svg width="34" height="34" viewBox="0 0 34 34" fill="none" xmlns="http://www.w3.org/2000/svg">
<path fill-rule="evenodd" clip-rule="evenodd" d="M34 17C34 7.61116 26.3888 0 17 0C7.61116 0 0 7.61116 0 17C0 26.3888 7.61116 34 17 34C26.3888 34 34 26.3888 34 17ZM31.96 17C31.96 8.73782 25.2622 2.04 17 2.04C8.73782 2.04 2.04 8.73782 2.04 17C2.04 25.2622 8.73782 31.96 17 31.96C25.2622 31.96 31.96 25.2622 31.96 17ZM25.0025 20.9205C24.7995 21.8026 24.0779 22.453 23.2097 22.5501C21.1531 22.7799 19.0715 22.781 16.999 22.7799C14.9265 22.781 12.8448 22.7799 10.7884 22.5501C9.91998 22.453 9.1988 21.8026 8.99602 20.9205C8.70724 19.6642 8.70724 18.2934 8.70724 17.0002C8.70724 15.7068 8.71067 14.3358 8.99925 13.0795C9.20223 12.1974 9.9234 11.5468 10.7916 11.4499C12.8482 11.2201 14.9298 11.219 17.0024 11.2201C19.0748 11.219 21.1565 11.2201 23.2129 11.4499C24.0814 11.5468 24.8029 12.1974 25.0057 13.0795C25.2945 14.3358 25.2928 15.7068 25.2928 17.0002C25.2928 18.2934 25.291 19.6642 25.0025 20.9205ZM15.5072 13.94L20.0972 16.59L15.5072 19.2401V13.94Z" fill="#001213"/>
</svg>
